<?xml version="1.0" encoding="UTF-8" standalone="no"?>
<svg
   width="42"
   height="42"
   viewBox="0 0 42 42"
   fill="none"
   version="1.1"
   id="svg23"
   sodipodi:docname="catena.svg"
   inkscape:version="1.2 (dc2aedaf03, 2022-05-15)"
   xmlns:inkscape="http://www.inkscape.org/namespaces/inkscape"
   xmlns:sodipodi="http://sodipodi.sourceforge.net/DTD/sodipodi-0.dtd"
   xmlns="http://www.w3.org/2000/svg"
   xmlns:svg="http://www.w3.org/2000/svg">
  <sodipodi:namedview
     id="namedview25"
     pagecolor="#ffffff"
     bordercolor="#000000"
     borderopacity="0.25"
     inkscape:showpageshadow="2"
     inkscape:pageopacity="0.0"
     inkscape:pagecheckerboard="0"
     inkscape:deskcolor="#d1d1d1"
     showgrid="false"
     inkscape:zoom="19.928571"
     inkscape:cx="13.121864"
     inkscape:cy="21.301075"
     inkscape:window-width="1700"
     inkscape:window-height="1040"
     inkscape:window-x="2050"
     inkscape:window-y="103"
     inkscape:window-maximized="0"
     inkscape:current-layer="g16" />
  <g
     clip-path="url(#clip0_680_449)"
     id="g16">
    <path
       d="M35.7903 8.29994C35.236 8.29994 34.7044 8.07973 34.3124 7.68775C33.9204 7.29577 33.7002 6.76413 33.7002 6.20978V2.65455C33.7002 2.1002 33.9204 1.56857 34.3124 1.17658C34.7044 0.784604 35.236 0.564392 35.7903 0.564392H39.3456C39.8999 0.564392 40.4316 0.784604 40.8235 1.17658C41.2155 1.56857 41.4357 2.1002 41.4357 2.65455V6.20978C41.4357 6.76413 41.2155 7.29577 40.8235 7.68775C40.4316 8.07973 39.8999 8.29994 39.3456 8.29994H35.7903ZM35.7903 1.80306C35.5658 1.80522 35.3511 1.89583 35.193 2.05524C35.0348 2.21464 34.9459 2.42998 34.9454 2.65455V6.20978C34.9476 6.43321 35.0373 6.64688 35.1953 6.80487C35.3533 6.96286 35.5669 7.05257 35.7903 7.0547H39.3456C39.5699 7.05385 39.7848 6.96472 39.9438 6.80659C40.1029 6.64846 40.1933 6.43405 40.1954 6.20978V2.65455C40.1946 2.42942 40.1047 2.21376 39.9456 2.05457C39.7864 1.89538 39.5707 1.80557 39.3456 1.8047L35.7903 1.80306Z"
       fill="#6BB073"
       id="path2"
       style="fill:#f9f9f9" />
    <path
       d="M2.65461 41.4356C2.10027 41.4356 1.56863 41.2154 1.17665 40.8234C0.784665 40.4314 0.564453 39.8998 0.564453 39.3455V35.7902C0.564453 35.2359 0.784665 34.7042 1.17665 34.3123C1.56863 33.9203 2.10027 33.7001 2.65461 33.7001H6.20984C6.76419 33.7001 7.29583 33.9203 7.68781 34.3123C8.07979 34.7042 8.3 35.2359 8.3 35.7902V39.3455C8.3 39.8998 8.07979 40.4314 7.68781 40.8234C7.29583 41.2154 6.76419 41.4356 6.20984 41.4356H2.65461ZM2.65461 34.9387C2.4292 34.9396 2.21329 35.0297 2.05406 35.1892C1.89482 35.3487 1.8052 35.5648 1.80477 35.7902V39.3455C1.80563 39.5706 1.89544 39.7862 2.05463 39.9454C2.21382 40.1046 2.42948 40.1944 2.65461 40.1953H6.20984C6.43411 40.1932 6.64852 40.1028 6.80665 39.9437C6.96478 39.7847 7.05391 39.5697 7.05477 39.3455V35.7902C7.05263 35.5668 6.96292 35.3531 6.80493 35.1951C6.64694 35.0372 6.43327 34.9474 6.20984 34.9453L2.65461 34.9387Z"
       fill="#6BB073"
       id="path4"
       style="fill:#6ff67e;fill-opacity:1" />
    <path
       d="M42.0001 20.9393C42.0116 22.1155 41.7874 23.2822 41.3408 24.3704C40.8942 25.4586 40.2342 26.4464 39.3997 27.2754L35.7903 30.8848L34.5106 32.1645C34.4117 32.2636 34.2942 32.3423 34.1649 32.396C34.0355 32.4497 33.8968 32.4773 33.7568 32.4773C33.6167 32.4773 33.478 32.4497 33.3487 32.396C33.2193 32.3423 33.1018 32.2636 33.0029 32.1645L31.9988 31.1604C31.7995 30.9605 31.6875 30.6897 31.6875 30.4074C31.6875 30.125 31.7995 29.8542 31.9988 29.6543L36.8895 24.7734C37.3841 24.2791 37.7764 23.6921 38.0441 23.046C38.3118 22.4 38.4496 21.7075 38.4496 21.0082C38.4496 20.3089 38.3118 19.6164 38.0441 18.9704C37.7764 18.3244 37.3841 17.7374 36.8895 17.243L34.8437 15.1889C34.6113 14.9555 34.4809 14.6397 34.4809 14.3104C34.4809 13.9811 34.6113 13.6652 34.8437 13.4318L35.6016 12.6788C35.717 12.5633 35.8539 12.4717 36.0047 12.4093C36.1554 12.3468 36.317 12.3146 36.4802 12.3146C36.6434 12.3146 36.805 12.3468 36.9557 12.4093C37.1065 12.4717 37.2434 12.5633 37.3588 12.6788L39.357 14.677C41.026 16.3366 41.9753 18.5859 42.0001 20.9393Z"
       fill="#6BB073"
       id="path6"
       style="fill:#f9f9f9" />
    <path
       d="M29.3214 6.39843L28.5684 7.15148C28.335 7.38381 28.0191 7.51424 27.6898 7.51424C27.3605 7.51424 27.0446 7.38381 26.8113 7.15148L24.7736 5.11054C24.2792 4.61596 23.6923 4.22363 23.0462 3.95595C22.4002 3.68828 21.7077 3.55051 21.0084 3.55051C20.3091 3.55051 19.6166 3.68828 18.9706 3.95595C18.3245 4.22363 17.7375 4.61596 17.2432 5.11054L13.6338 8.71992L12.3541 10.0012C12.1542 10.2006 11.8834 10.3126 11.601 10.3126C11.3187 10.3126 11.0479 10.2006 10.848 10.0012L9.84394 8.98898C9.74483 8.89021 9.66619 8.77285 9.61253 8.64362C9.55887 8.5144 9.53125 8.37585 9.53125 8.23593C9.53125 8.09601 9.55887 7.95746 9.61253 7.82824C9.66619 7.69901 9.74483 7.58165 9.84394 7.48288L11.1236 6.20156L14.6772 2.64796C16.3359 0.977228 18.5853 0.0260817 20.9395 -6.84246e-06C22.1157 -0.0114976 23.2824 0.212674 24.3706 0.659286C25.4588 1.1059 26.4465 1.76591 27.2756 2.60038L29.3214 4.64624C29.5531 4.87898 29.6831 5.19398 29.6831 5.52234C29.6831 5.8507 29.5531 6.16569 29.3214 6.39843Z"
       fill="#6BB073"
       id="path8"
       style="fill:#f9f9f9;fill-opacity:1" />
    <path
       d="M28.4929 34.668C28.293 34.4687 28.0222 34.3567 27.7399 34.3567C27.4575 34.3567 27.1867 34.4687 26.9868 34.668L24.7736 36.8894C24.2792 37.384 23.6922 37.7763 23.0462 38.044C22.4001 38.3117 21.7077 38.4495 21.0084 38.4495C20.3091 38.4495 19.6166 38.3117 18.9706 38.044C18.3245 37.7763 17.7375 37.384 17.2431 36.8894L15.1891 34.8436C14.9557 34.6112 14.6398 34.4808 14.3105 34.4808C13.9812 34.4808 13.6653 34.6112 13.432 34.8436L12.6789 35.6015C12.5635 35.7169 12.4719 35.8538 12.4094 36.0046C12.347 36.1553 12.3148 36.3169 12.3148 36.4801C12.3148 36.6433 12.347 36.8049 12.4094 36.9556C12.4719 37.1064 12.5635 37.2433 12.6789 37.3586L14.6772 39.3569C16.3367 41.0259 18.586 41.9752 20.9395 42C22.1157 42.0115 23.2823 41.7873 24.3706 41.3407C25.4588 40.8941 26.4465 40.2341 27.2756 39.3996L29.497 37.1782C29.5961 37.0794 29.6747 36.962 29.7284 36.8328C29.782 36.7036 29.8097 36.5651 29.8097 36.4251C29.8097 36.2852 29.782 36.1467 29.7284 36.0174C29.6747 35.8882 29.5961 35.7709 29.497 35.6721L28.4929 34.668ZM5.11072 24.7734C4.61614 24.279 4.22381 23.692 3.95614 23.046C3.68846 22.3999 3.55069 21.7075 3.55069 21.0082C3.55069 20.3089 3.68846 19.6164 3.95614 18.9704C4.22381 18.3243 4.61614 17.7373 5.11072 17.2429L7.33213 15.0133C7.5315 14.8134 7.64346 14.5426 7.64346 14.2603C7.64346 13.978 7.5315 13.7071 7.33213 13.5072L6.32807 12.5032C6.2293 12.4041 6.11194 12.3254 5.98271 12.2718C5.85349 12.2181 5.71494 12.1905 5.57502 12.1905C5.4351 12.1905 5.29655 12.2181 5.16733 12.2718C5.0381 12.3254 4.92074 12.4041 4.82197 12.5032L2.64814 14.677C0.977411 16.3357 0.0262649 18.5851 0.000176263 20.9393C-0.0113145 22.1155 0.212857 23.2821 0.659469 24.3704C1.10608 25.4586 1.76609 26.4463 2.60057 27.2754L4.64643 29.3212C4.76177 29.4367 4.89872 29.5282 5.04947 29.5907C5.20022 29.6532 5.3618 29.6853 5.52498 29.6853C5.68816 29.6853 5.84974 29.6532 6.00049 29.5907C6.15124 29.5282 6.2882 29.4367 6.40354 29.3212L7.15658 28.5682C7.38891 28.3348 7.51935 28.0189 7.51935 27.6896C7.51935 27.3603 7.38891 27.0444 7.15658 26.8111L5.11072 24.7734Z"
       fill="#6BB073"
       id="path10"
       style="fill:#6ff67e;fill-opacity:1" />
    <path
       d="M39.047 38.1445L38.1447 39.0469C37.8809 39.3111 37.5676 39.5207 37.2227 39.6637C36.8779 39.8067 36.5082 39.8803 36.1349 39.8803C35.7616 39.8803 35.3919 39.8067 35.047 39.6637C34.7022 39.5207 34.3889 39.3111 34.1251 39.0469L30.8783 35.7984L28.3682 33.2883L25.0869 30.007C24.5543 29.4744 24.2551 28.7521 24.2551 27.9989C24.2551 27.2457 24.5543 26.5234 25.0869 25.9908L25.9909 25.0868C26.5235 24.5542 27.2458 24.255 27.999 24.255C28.7522 24.255 29.4746 24.5542 30.0072 25.0868L33.2884 28.368L32.9603 28.6962L30.2697 26.0055C29.9585 25.7045 29.5416 25.5377 29.1086 25.5411C28.6757 25.5446 28.2615 25.718 27.9552 26.0241C27.6489 26.3301 27.4752 26.7442 27.4714 27.1772C27.4677 27.6101 27.6342 28.0272 27.935 28.3385L35.8018 36.2135C35.9551 36.3668 36.1371 36.4884 36.3374 36.5714C36.5377 36.6543 36.7524 36.697 36.9691 36.697C37.1859 36.697 37.4006 36.6543 37.6009 36.5714C37.8012 36.4884 37.9832 36.3668 38.1364 36.2135C38.2897 36.0602 38.4113 35.8782 38.4943 35.6779C38.5773 35.4777 38.62 35.263 38.62 35.0462C38.62 34.8294 38.5773 34.6148 38.4943 34.4145C38.4113 34.2142 38.2897 34.0322 38.1364 33.8789L35.4721 31.2047L35.8002 30.8766L39.047 34.125C39.3112 34.3888 39.5208 34.702 39.6638 35.0469C39.8068 35.3918 39.8804 35.7614 39.8804 36.1348C39.8804 36.5081 39.8068 36.8778 39.6638 37.2226C39.5208 37.5675 39.3112 37.8808 39.047 38.1445Z"
       fill="#6BB073"
       id="path12"
       style="fill:#f9f9f9" />
    <path
       d="M16.9085 16.0043L16.0045 16.9083C15.4719 17.4409 14.7495 17.7401 13.9964 17.7401C13.2432 17.7401 12.5208 17.4409 11.9882 16.9083L8.70698 13.627L6.20174 11.1218L2.95331 7.875C2.6891 7.61123 2.4795 7.29795 2.33649 6.95309C2.19348 6.60824 2.11987 6.23857 2.11987 5.86523C2.11987 5.4919 2.19348 5.12223 2.33649 4.77737C2.4795 4.43251 2.6891 4.11924 2.95331 3.85547L3.85565 2.95312C4.11942 2.68892 4.4327 2.47932 4.77755 2.33631C5.12241 2.1933 5.49208 2.11969 5.86542 2.11969C6.23875 2.11969 6.60842 2.1933 6.95328 2.33631C7.29813 2.47932 7.61141 2.68892 7.87518 2.95312L11.122 6.20156L10.7939 6.52969L8.12948 3.86203C7.81989 3.55244 7.4 3.37852 6.96217 3.37852C6.52435 3.37852 6.10446 3.55244 5.79487 3.86203C5.48528 4.17162 5.31136 4.59151 5.31136 5.02933C5.31136 5.46716 5.48528 5.88705 5.79487 6.19664L8.46088 8.85937L13.6633 14.0602C13.9765 14.3489 14.3893 14.5053 14.8152 14.4967C15.2411 14.4881 15.6472 14.3152 15.9486 14.014C16.2499 13.7129 16.4231 13.3069 16.432 12.881C16.4409 12.4551 16.2848 12.0423 15.9963 11.7288L13.3056 9.0382L13.6338 8.71008L16.915 11.9913C17.4457 12.5246 17.7431 13.2468 17.7419 13.9992C17.7407 14.7516 17.4409 15.4727 16.9085 16.0043Z"
       fill="#6BB073"
       id="path14"
       style="fill:#6ff67e;fill-opacity:1" />
  </g>
  <defs
     id="defs21">
    <clipPath
       id="clip0_680_449">
      <rect
         width="42"
         height="42"
         fill="white"
         id="rect18" />
    </clipPath>
  </defs>
</svg>
