<?xml version="1.0" encoding="UTF-8" standalone="no"?>
<svg
   width="83"
   height="83"
   viewBox="0 0 83 83"
   fill="none"
   version="1.1"
   id="svg2923"
   sodipodi:docname="legacy-logo.svg"
   inkscape:version="1.2 (dc2aedaf03, 2022-05-15)"
   xmlns:inkscape="http://www.inkscape.org/namespaces/inkscape"
   xmlns:sodipodi="http://sodipodi.sourceforge.net/DTD/sodipodi-0.dtd"
   xmlns="http://www.w3.org/2000/svg"
   xmlns:svg="http://www.w3.org/2000/svg">
  <defs
     id="defs2927" />
  <sodipodi:namedview
     id="namedview2925"
     pagecolor="#ffffff"
     bordercolor="#000000"
     borderopacity="0.25"
     inkscape:showpageshadow="2"
     inkscape:pageopacity="0.0"
     inkscape:pagecheckerboard="0"
     inkscape:deskcolor="#d1d1d1"
     showgrid="false"
     inkscape:zoom="10.084337"
     inkscape:cx="39.814217"
     inkscape:cy="41.549582"
     inkscape:window-width="1920"
     inkscape:window-height="1017"
     inkscape:window-x="1912"
     inkscape:window-y="95"
     inkscape:window-maximized="1"
     inkscape:current-layer="svg2923" />
  <path
     d="m 25.445,29.3324 9.2937,-9.2937 c 1.6968,-1.6927 3.9957,-2.6432 6.3924,-2.6432 2.3967,0 4.6956,0.9505 6.3924,2.6432 l 3.383,3.383 1.9162,-1.9162 -3.383,-3.383 c -2.2052,-2.2002 -5.1931,-3.4357 -8.3082,-3.4357 -3.115,0 -6.1029,1.2355 -8.3082,3.4357 l -9.2945,9.2937 -0.6753,-0.6761 9.2937,-9.2937 c 2.3845,-2.3793 5.6154,-3.7154 8.9839,-3.7154 3.3685,0 6.5994,1.3361 8.9839,3.7154 l 4.0591,4.0591 -3.2676,3.2684 -4.0591,-4.0591 C 45.3304,19.2005 43.2745,18.35 41.1311,18.35 c -2.1434,0 -4.1993,0.8505 -5.7163,2.3648 l -9.2937,9.2937 z"
     fill="#6ff67e"
     fill-opacity="0.33"
     id="path2907"
     style="mix-blend-mode:normal;opacity:1;fill:#ffffff;fill-opacity:1" />
  <path
     d="m 17.3727,50.1896 c -4.9546,-4.9538 -4.9546,-13.0147 0,-17.9686 l 4.3751,-4.3751 0.6761,0.6762 -4.3759,4.3751 c -4.5838,4.5838 -4.5838,12.0325 0,16.6163 l 3.383,3.3831 1.9162,-1.9162 -3.383,-3.3823 c -1.693,-1.6966 -2.6439,-3.9955 -2.6439,-6.3923 0,-2.3969 0.9509,-4.6958 2.6439,-6.3924 l 4.3759,-4.3751 0.6761,0.6761 -4.3759,4.3751 c -1.5139,1.5172 -2.3641,3.573 -2.3641,5.7163 0,2.1433 0.8502,4.199 2.3641,5.7162 l 4.0592,4.0592 -3.2685,3.2676 z"
     fill="#6ff67e"
     fill-opacity="0.33"
     id="path2909"
     style="mix-blend-mode:normal;opacity:1;fill:#ffffff;fill-opacity:1" />
  <path
     d="m 41.8724,69.2722 c -1.669,0.0056 -3.3226,-0.32 -4.8649,-0.9579 -1.5423,-0.6379 -2.9427,-1.5754 -4.1202,-2.7582 l -4.0592,-4.0592 3.2685,-3.2676 4.0591,4.0616 c 1.517,1.5143 3.5728,2.3648 5.7163,2.3648 2.1434,0 4.1993,-0.8505 5.7163,-2.3648 l 9.2937,-9.2961 0.6753,0.6761 -9.2938,9.2937 c -1.6966,1.6925 -3.9954,2.6431 -6.3919,2.6431 -2.3966,0 -4.6953,-0.9506 -6.392,-2.6431 l -3.383,-3.3839 -1.9162,1.9162 3.3797,3.3839 c 2.2054,2.1999 5.1932,3.4353 8.3082,3.4353 3.115,0 6.1028,-1.2354 8.3082,-3.4353 l 9.297,-9.2937 0.6761,0.6753 -9.2937,9.2937 c -1.1772,1.1829 -2.5773,2.1204 -4.1194,2.7583 -1.542,0.6379 -3.1953,0.9635 -4.8641,0.9578 z"
     fill="#6ff67e"
     fill-opacity="0.33"
     id="path2911"
     style="mix-blend-mode:normal;opacity:1;fill:#ffffff;fill-opacity:1" />
  <path
     d="m 60.5791,54.4812 4.3751,-4.3759 c 4.5839,-4.5838 4.5839,-12.0326 0,-16.6164 l -3.383,-3.383 -1.9162,1.9162 3.383,3.383 c 1.6936,1.6962 2.6448,3.9951 2.6448,6.392 0,2.3969 -0.9512,4.6958 -2.6448,6.392 l -4.3751,4.3759 -0.6761,-0.6761 4.3759,-4.3751 c 1.5139,-1.5172 2.3641,-3.573 2.3641,-5.7163 0,-2.1433 -0.8502,-4.1991 -2.3641,-5.7163 l -4.0591,-4.0591 3.2676,-3.2684 4.0591,4.0591 c 4.9539,4.9546 4.9539,13.0148 0,17.9686 l -4.3751,4.3759 z"
     fill="#6ff67e"
     fill-opacity="0.33"
     id="path2913"
     style="mix-blend-mode:normal;opacity:1;fill:#ffffff;fill-opacity:1" />
  <path
     d="M 66.1379,60.1709 52.1572,46.1886 c -0.5951,-0.594 -1.4016,-0.9276 -2.2424,-0.9276 -0.8408,0 -1.6472,0.3336 -2.2424,0.9276 l -2.2338,2.2354 c -0.2947,0.2943 -0.5286,0.6437 -0.6881,1.0284 -0.1596,0.3847 -0.2417,0.7971 -0.2417,1.2136 0,0.4165 0.0821,0.8289 0.2417,1.2136 0.1595,0.3847 0.3934,0.7342 0.6881,1.0284 l 5.7004,5.6995 0.9748,-0.9749 -5.7027,-5.7003 c -0.1668,-0.1665 -0.2992,-0.3643 -0.3895,-0.582 -0.0903,-0.2177 -0.1367,-0.451 -0.1367,-0.6867 0,-0.2357 0.0464,-0.4691 0.1367,-0.6868 0.0903,-0.2177 0.2227,-0.4155 0.3895,-0.582 l 2.2354,-2.2338 c 0.3361,-0.3354 0.7915,-0.5237 1.2663,-0.5237 0.4748,0 0.9302,0.1883 1.2663,0.5237 L 65.163,61.145 c 0.3354,0.336 0.5238,0.7915 0.5238,1.2663 0,0.4748 -0.1884,0.9302 -0.5238,1.2662 l -2.2338,2.2371 c -0.3362,0.3355 -0.7917,0.5238 -1.2667,0.5238 -0.4749,0 -0.9305,-0.1883 -1.2667,-0.5238 l -4.8842,-4.8842 -0.9749,0.9749 4.8843,4.8842 c 0.2941,0.2947 0.6435,0.5286 1.0281,0.6881 0.3847,0.1596 0.797,0.2417 1.2134,0.2417 0.4164,0 0.8288,-0.0821 1.2134,-0.2417 0.3846,-0.1595 0.734,-0.3934 1.0282,-0.6881 l 2.2338,-2.2338 c 0.5934,-0.5954 0.9265,-1.4018 0.9265,-2.2424 0,-0.8406 -0.3331,-1.647 -0.9265,-2.2424 z"
     fill="#6ff67e"
     fill-opacity="0.33"
     id="path2915"
     style="mix-blend-mode:normal;opacity:1;fill:#ffffff;fill-opacity:1" />
  <path
     d="m 37.5646,30.0953 -5.7003,-5.7028 -0.9757,0.9823 5.7003,5.6954 c 0.1666,0.1666 0.2988,0.3644 0.389,0.5821 0.0901,0.2177 0.1366,0.451 0.1366,0.6866 0,0.2357 -0.0465,0.469 -0.1366,0.6867 -0.0902,0.2177 -0.2224,0.4155 -0.389,0.5821 l -2.2346,2.2338 c -0.3361,0.3354 -0.7915,0.5237 -1.2663,0.5237 -0.4748,0 -0.9302,-0.1883 -1.2663,-0.5237 L 17.8394,21.8551 c -0.3354,-0.3361 -0.5237,-0.7915 -0.5237,-1.2663 0,-0.4748 0.1883,-0.9302 0.5237,-1.2663 l 2.2338,-2.2346 c 0.1666,-0.1666 0.3644,-0.2988 0.5821,-0.389 0.2177,-0.0901 0.451,-0.1366 0.6867,-0.1366 0.2356,0 0.4689,0.0465 0.6866,0.1366 0.2177,0.0902 0.4155,0.2224 0.5821,0.389 l 4.8842,4.8842 0.9749,-0.9749 -4.8875,-4.8834 c -0.2942,-0.2947 -0.6437,-0.5286 -1.0284,-0.6882 -0.3847,-0.1595 -0.7971,-0.2416 -1.2136,-0.2416 -0.4165,0 -0.8289,0.0821 -1.2136,0.2416 -0.3847,0.1596 -0.7341,0.3935 -1.0284,0.6882 l -2.2362,2.2338 c -0.5934,0.5955 -0.9266,1.4018 -0.9266,2.2424 0,0.8406 0.3332,1.647 0.9266,2.2424 l 13.9831,13.9815 c 0.5951,0.594 1.4016,0.9275 2.2424,0.9275 0.8408,0 1.6473,-0.3335 2.2424,-0.9275 l 2.2338,-2.2346 c 0.2947,-0.2943 0.5284,-0.6438 0.6879,-1.0285 0.1595,-0.3847 0.2416,-0.7971 0.2416,-1.2135 0,-0.4165 -0.0821,-0.8288 -0.2416,-1.2135 -0.1595,-0.3847 -0.3932,-0.7342 -0.6879,-1.0285 z"
     fill="#6ff67e"
     fill-opacity="0.33"
     id="path2917"
     style="mix-blend-mode:normal;opacity:1;fill:#ffffff;fill-opacity:1" />
  <path
     d="m 63.9778,24.386 c -1.2393,-4e-4 -2.4402,-0.4305 -3.398,-1.2169 -0.9578,-0.7865 -1.6134,-1.8807 -1.855,-3.0962 -0.2415,-1.2156 -0.0542,-2.4773 0.5301,-3.5702 0.5844,-1.093 1.5296,-1.9495 2.6746,-2.4237 1.145,-0.4742 2.419,-0.5368 3.605,-0.1771 1.1859,0.3597 2.2105,1.1195 2.8991,2.1499 0.6887,1.0304 0.9987,2.2677 0.8775,3.5011 -0.1213,1.2334 -0.6665,2.3866 -1.5426,3.2631 -0.4967,0.4993 -1.0875,0.8951 -1.7381,1.1646 -0.6507,0.2694 -1.3483,0.4072 -2.0526,0.4054 z m 0,-9.7407 c -1.0116,8e-4 -1.9917,0.3522 -2.7733,0.9944 -0.7817,0.6423 -1.3165,1.5356 -1.5134,2.5279 -0.1969,0.9923 -0.0437,2.0221 0.4335,2.9142 0.4772,0.892 1.2489,1.591 2.1836,1.9779 0.9347,0.3869 1.9747,0.4379 2.9427,0.1441 0.9681,-0.2937 1.8043,-0.914 2.3664,-1.7551 0.5621,-0.8412 0.8151,-1.8511 0.7161,-2.8579 -0.099,-1.0068 -0.5439,-1.9481 -1.259,-2.6636 -0.406,-0.4075 -0.8886,-0.7305 -1.4201,-0.9504 -0.5315,-0.2199 -1.1013,-0.3323 -1.6765,-0.3307 z"
     fill="#6ff67e"
     fill-opacity="0.33"
     id="path2919"
     style="mix-blend-mode:normal;opacity:1;fill:#ffffff;fill-opacity:1" />
  <path
     d="m 19.0222,69.3361 c -1.2405,0 -2.4425,-0.4301 -3.4014,-1.217 -0.9588,-0.7869 -1.6152,-1.8819 -1.8571,-3.0985 -0.242,-1.2166 -0.0547,-2.4795 0.5301,-3.5734 0.5848,-1.094 1.5307,-1.9513 2.6768,-2.4259 1.146,-0.4747 2.4211,-0.5373 3.6081,-0.1771 1.187,0.3601 2.2124,1.1207 2.9015,2.1521 0.689,1.0314 0.9992,2.2699 0.8775,3.5043 -0.1217,1.2345 -0.6677,2.3885 -1.5449,3.2655 -0.4964,0.4996 -1.0872,0.8956 -1.7379,1.1651 -0.6507,0.2695 -1.3484,0.4071 -2.0527,0.4049 z m 0,-9.7406 c -1.0128,3e-4 -1.994,0.3518 -2.7767,0.9945 -0.7826,0.6427 -1.3182,1.5369 -1.5155,2.5302 -0.1973,0.9933 -0.0441,2.0243 0.4335,2.9173 0.4776,0.8931 1.2501,1.5929 2.1858,1.9802 0.9357,0.3874 1.9768,0.4383 2.9459,0.1441 0.969,-0.2941 1.8061,-0.9152 2.3686,-1.7573 0.5625,-0.8422 0.8157,-1.8533 0.7163,-2.8611 -0.0994,-1.0079 -0.5452,-1.9501 -1.2614,-2.6661 -0.4058,-0.4076 -0.8885,-0.7307 -1.42,-0.9506 -0.5315,-0.2199 -1.1013,-0.3322 -1.6765,-0.3304 z"
     fill="#6ff67e"
     fill-opacity="0.33"
     id="path2921"
     style="mix-blend-mode:normal;opacity:1;fill:#ffffff;fill-opacity:1" />
</svg>
