<?xml version="1.0" encoding="UTF-8" standalone="no"?>
<svg
   width="50px"
   height="50px"
   viewBox="0 0 50 50"
   version="1.1"
   id="svg13027"
   sodipodi:docname="rocket.svg"
   inkscape:version="1.2 (dc2aedaf03, 2022-05-15)"
   xmlns:inkscape="http://www.inkscape.org/namespaces/inkscape"
   xmlns:sodipodi="http://sodipodi.sourceforge.net/DTD/sodipodi-0.dtd"
   xmlns="http://www.w3.org/2000/svg"
   xmlns:svg="http://www.w3.org/2000/svg">
  <defs
     id="defs13031" />
  <sodipodi:namedview
     id="namedview13029"
     pagecolor="#ffffff"
     bordercolor="#000000"
     borderopacity="0.25"
     inkscape:showpageshadow="2"
     inkscape:pageopacity="0.0"
     inkscape:pagecheckerboard="0"
     inkscape:deskcolor="#d1d1d1"
     showgrid="false"
     inkscape:zoom="16.74"
     inkscape:cx="24.970131"
     inkscape:cy="25.029869"
     inkscape:window-width="1920"
     inkscape:window-height="1017"
     inkscape:window-x="1912"
     inkscape:window-y="95"
     inkscape:window-maximized="1"
     inkscape:current-layer="svg13027" />
  <g
     id="surface1"
     style="fill:#ffffff">
    <path
       style="stroke:none;fill-rule:nonzero;fill:#ffffff;fill-opacity:1"
       d="M 47.691406 1.125 L 46.878906 1.847656 L 44.886719 1.710938 C 43.800781 1.621094 41.746094 1.664062 40.320312 1.78125 C 32.632812 2.457031 25.964844 5.554688 20.785156 10.847656 L 18.820312 12.835938 L 17.101562 12.382812 C 14.480469 11.660156 11.539062 11.816406 9.550781 12.8125 C 6.316406 14.394531 3.648438 18.058594 1.140625 24.253906 C 0.527344 25.789062 0.394531 26.355469 0.574219 26.671875 C 0.890625 27.28125 1.207031 27.214844 3.082031 26.21875 C 5.074219 25.132812 6.949219 24.613281 8.804688 24.613281 C 10.386719 24.613281 12.535156 25.179688 12.535156 25.585938 C 12.535156 25.746094 12.308594 26.761719 12.035156 27.847656 L 11.515625 29.859375 L 12.421875 30.558594 C 13.914062 31.734375 17.9375 35.714844 19.023438 37.09375 C 19.566406 37.816406 20.199219 38.40625 20.425781 38.40625 C 20.628906 38.40625 21.644531 38.15625 22.683594 37.863281 L 24.5625 37.320312 L 24.921875 38.132812 C 25.105469 38.609375 25.308594 39.828125 25.375 40.894531 C 25.464844 42.519531 25.375 43.0625 24.878906 44.554688 C 24.5625 45.503906 23.996094 46.792969 23.613281 47.402344 C 22.820312 48.691406 22.777344 49.144531 23.363281 49.460938 C 23.679688 49.640625 24.246094 49.507812 25.78125 48.898438 C 31.953125 46.410156 35.84375 43.515625 37.382812 40.214844 C 38.195312 38.449219 38.308594 35.332031 37.652344 32.933594 L 37.199219 31.214844 L 39.007812 29.429688 C 42.941406 25.609375 45.566406 21.246094 47.148438 15.796875 C 47.941406 13.152344 48.277344 10.191406 48.277344 6.503906 C 48.277344 3.226562 48.300781 2.933594 48.730469 2.546875 C 49.542969 1.800781 49.703125 1.351562 49.25 0.851562 C 48.730469 0.285156 48.640625 0.308594 47.691406 1.125 Z M 46.355469 3.65625 C 46.449219 3.722656 46.558594 4.761719 46.628906 5.960938 C 46.742188 8.109375 46.742188 8.109375 46.199219 8.109375 C 45.339844 8.109375 43.328125 6.820312 42.71875 5.871094 C 42.402344 5.398438 42.0625 4.628906 41.992188 4.152344 L 41.859375 3.292969 L 44.027344 3.40625 C 45.226562 3.453125 46.265625 3.566406 46.355469 3.65625 Z M 40.207031 4.355469 C 40.296875 4.785156 40.613281 5.601562 40.929688 6.210938 L 41.496094 7.273438 L 38.875 9.917969 L 36.226562 12.5625 L 34.894531 11.886719 C 32.316406 10.574219 28.992188 11.117188 26.890625 13.195312 C 24.605469 15.503906 24.15625 19.367188 25.894531 21.921875 L 26.300781 22.488281 L 23.160156 25.632812 L 20.019531 28.75 L 18.707031 27.621094 C 17.984375 27.011719 16.808594 26.0625 16.105469 25.539062 C 15.382812 25 14.796875 24.476562 14.796875 24.367188 C 14.796875 23.957031 16.039062 20.769531 16.785156 19.300781 C 19.496094 13.898438 24.199219 9.171875 29.601562 6.460938 C 32.113281 5.214844 37.425781 3.65625 39.347656 3.609375 C 39.980469 3.585938 40.070312 3.679688 40.207031 4.355469 Z M 43.847656 9.128906 C 44.433594 9.421875 45.25 9.738281 45.679688 9.828125 C 46.582031 9.984375 46.582031 10.03125 46.085938 12.652344 C 44.367188 21.699219 38.648438 29.316406 30.507812 33.386719 C 29.21875 34.019531 26.054688 35.238281 25.671875 35.238281 C 25.558594 35.238281 25.035156 34.652344 24.496094 33.929688 C 23.972656 33.226562 23.023438 32.050781 22.390625 31.328125 L 21.261719 30.015625 L 24.382812 26.898438 L 27.476562 23.800781 L 28.878906 24.476562 C 33.492188 26.785156 38.828125 23.371094 38.828125 18.125 C 38.828125 16.722656 38.738281 16.292969 38.148438 15.1875 L 37.472656 13.875 L 40.09375 11.207031 C 41.542969 9.761719 42.738281 8.5625 42.761719 8.5625 C 42.785156 8.5625 43.28125 8.808594 43.847656 9.128906 Z M 33.628906 13.21875 C 35.867188 13.964844 37.382812 16.429688 37.085938 18.804688 C 36.816406 21.246094 34.757812 23.234375 32.292969 23.4375 C 28.15625 23.777344 25.285156 19.550781 27.140625 15.839844 C 28.359375 13.378906 30.984375 12.316406 33.628906 13.21875 Z M 16.492188 14.011719 C 17.054688 14.144531 17.507812 14.347656 17.507812 14.460938 C 17.507812 14.574219 17.167969 15.1875 16.738281 15.839844 C 15.65625 17.582031 14.480469 19.957031 13.800781 21.921875 L 13.191406 23.621094 L 11.5625 23.191406 C 9.4375 22.648438 6.925781 22.761719 4.710938 23.527344 L 3.082031 24.09375 L 3.421875 23.28125 C 4.167969 21.472656 5.59375 18.984375 6.703125 17.515625 C 9.300781 14.078125 12.398438 12.992188 16.492188 14.011719 Z M 16.265625 27.871094 C 17.257812 28.660156 18.886719 30.152344 19.882812 31.191406 C 21.691406 33.070312 23.746094 35.648438 23.589844 35.78125 C 23.546875 35.804688 22.910156 36.007812 22.164062 36.210938 L 20.832031 36.574219 L 20.378906 35.964844 C 19.792969 35.171875 14.863281 30.242188 14.070312 29.65625 L 13.460938 29.203125 L 13.84375 27.824219 C 14.050781 27.054688 14.273438 26.421875 14.34375 26.421875 C 14.410156 26.421875 15.292969 27.078125 16.265625 27.871094 Z M 36.003906 33.476562 C 37.042969 37.660156 35.980469 40.6875 32.519531 43.335938 C 31.050781 44.441406 28.5625 45.867188 26.753906 46.613281 L 25.941406 46.953125 L 26.484375 45.347656 C 27.410156 42.722656 27.386719 39.445312 26.460938 37.253906 C 26.324219 36.957031 26.640625 36.753906 28.066406 36.257812 C 29.988281 35.601562 33.199219 33.996094 34.464844 33.113281 C 34.894531 32.796875 35.371094 32.550781 35.503906 32.527344 C 35.664062 32.527344 35.867188 32.957031 36.003906 33.476562 Z M 36.003906 33.476562 "
       id="path13018" />
    <path
       style="stroke:none;fill-rule:nonzero;fill:#ffffff;fill-opacity:1"
       d="M 29.085938 15.390625 C 28.925781 15.546875 28.8125 15.820312 28.8125 16.023438 C 28.8125 16.769531 29.308594 16.925781 31.707031 16.925781 C 32.996094 16.925781 34.238281 16.8125 34.488281 16.699219 C 34.960938 16.429688 35.050781 15.796875 34.644531 15.390625 C 34.261719 15.003906 29.46875 15.003906 29.085938 15.390625 Z M 29.085938 15.390625 "
       id="path13020" />
    <path
       style="stroke:none;fill-rule:nonzero;fill:#ffffff;fill-opacity:1"
       d="M 28.496094 18.125 C 28.246094 18.304688 28.113281 18.644531 28.179688 18.984375 C 28.246094 19.503906 28.316406 19.527344 30.054688 19.527344 C 31.863281 19.527344 31.863281 19.527344 31.933594 18.917969 C 32 18.417969 31.886719 18.238281 31.414062 18.058594 C 30.574219 17.742188 28.972656 17.785156 28.496094 18.125 Z M 28.496094 18.125 "
       id="path13022" />
    <path
       style="stroke:none;fill-rule:nonzero;fill:#ffffff;fill-opacity:1"
       d="M 8.078125 33.320312 C 4.78125 34.335938 2.472656 37.183594 1.546875 41.277344 C 1.117188 43.289062 1.160156 47.921875 1.636719 48.398438 C 2.089844 48.851562 6.632812 48.917969 8.691406 48.488281 C 12.171875 47.742188 14.910156 45.84375 16.195312 43.222656 C 16.828125 41.933594 16.941406 41.433594 17.011719 39.601562 C 17.148438 36.484375 16.511719 36.007812 14.839844 37.953125 C 13.640625 39.332031 12.445312 39.988281 11.066406 39.988281 L 10.046875 39.988281 L 10.046875 38.949219 C 10.046875 37.523438 10.566406 36.527344 11.992188 35.285156 C 13.214844 34.222656 13.4375 33.746094 12.941406 33.25 C 12.578125 32.890625 9.300781 32.933594 8.078125 33.320312 Z M 9.367188 35.445312 C 8.304688 36.933594 7.898438 39.625 8.53125 40.890625 C 9.144531 42.089844 12.488281 42.023438 14.386719 40.777344 L 15.246094 40.214844 L 15.246094 40.710938 C 15.246094 41.636719 14.207031 43.46875 13.121094 44.464844 C 11.945312 45.550781 10.386719 46.320312 8.511719 46.769531 C 7.175781 47.085938 3.355469 47.175781 3.085938 46.90625 C 2.789062 46.589844 2.972656 42.609375 3.378906 41.140625 C 3.875 39.242188 4.441406 38.132812 5.59375 36.867188 C 6.566406 35.828125 8.398438 34.789062 9.324219 34.789062 L 9.84375 34.789062 Z M 9.367188 35.445312 "
       id="path13024" />
  </g>
</svg>
